<?xml version="1.0" encoding="UTF-8"?>
<svg version="1.1" xmlns="http://www.w3.org/2000/svg" width="274" height="274">
<path d="M0 0 C90.42 0 180.84 0 274 0 C274 90.42 274 180.84 274 274 C183.58 274 93.16 274 0 274 C0 183.58 0 93.16 0 0 Z " fill="#FBFCFC" transform="translate(0,0)"/>
<path d="M0 0 C90.42 0 180.84 0 274 0 C274 90.42 274 180.84 274 274 C183.58 274 93.16 274 0 274 C0 183.58 0 93.16 0 0 Z M36.375 45.75 C35.22945736 47.15010767 34.1072903 48.56944848 33 50 C32.60635254 50.49387207 32.21270508 50.98774414 31.80712891 51.49658203 C19.77884088 66.66888018 11.08818908 83.29912839 6 102 C5.73437256 102.90298828 5.46874512 103.80597656 5.19506836 104.73632812 C2.52953194 114.7096719 2.40485228 124.49849827 2.4375 134.75 C2.43765106 135.65330048 2.43780212 136.55660095 2.43795776 137.48727417 C2.48783008 152.6768355 3.88583682 166.5731838 9 181 C9.27263672 181.76973145 9.54527344 182.53946289 9.82617188 183.33251953 C22.17329981 216.72454239 48.45688052 243.820349 80.421875 258.87304688 C93.97607286 264.79787427 108.27489116 269.29857214 123.125 269.3359375 C124.07076904 269.3425943 125.01653809 269.3492511 125.9909668 269.35610962 C127.98435542 269.36617993 129.97777737 269.37092839 131.97119141 269.37060547 C134.96445941 269.37494843 137.95621368 269.41124521 140.94921875 269.44921875 C156.71113848 269.54341121 170.64348963 267.35348981 185.25 261.1875 C186.08789062 260.84130615 186.92578125 260.4951123 187.7890625 260.13842773 C203.92528498 253.35035337 217.27027505 244.01530161 230 232 C230.67546875 231.37738281 231.3509375 230.75476563 232.046875 230.11328125 C248.62361997 214.29906655 260.03581134 192.9754334 266 171 C266.350625 169.9275 266.70125 168.855 267.0625 167.75 C271.51621717 149.93513133 272.2235171 128.9059527 268 111 C267.84402344 110.30422852 267.68804687 109.60845703 267.52734375 108.89160156 C262.91790911 88.60155315 254.67658343 70.57148789 242 54 C241.40703125 53.18917969 240.8140625 52.37835938 240.203125 51.54296875 C220.78937604 25.86538198 189.76029791 8.71747072 158.23681641 3.36621094 C151.81630714 2.63979942 145.37915952 2.62812387 138.92358398 2.62939453 C136.46591294 2.62505022 134.01008615 2.58870411 131.55273438 2.55078125 C95.85600694 2.29686951 60.3694906 19.41875378 36.375 45.75 Z " fill="#FCFDFD" transform="translate(0,0)"/>
<path d="M0 0 C6.44559361 4.59598849 11.32499902 9.47750253 14 17 C14.50821574 20.62813399 14.46922493 24.18606829 14.390625 27.84375 C14.38659668 28.7399707 14.38256836 29.63619141 14.37841797 30.55957031 C14.35765832 33.87325834 14.30181405 37.18665206 14.25 40.5 C14.1675 47.925 14.085 55.35 14 63 C-5.8 63 -25.6 63 -46 63 C-46.0825 55.41 -46.165 47.82 -46.25 40 C-46.28641602 37.61910156 -46.32283203 35.23820312 -46.36035156 32.78515625 C-46.37204459 30.87761331 -46.38223496 28.97006032 -46.390625 27.0625 C-46.41108887 26.08861328 -46.43155273 25.11472656 -46.45263672 24.11132812 C-46.45636547 16.75822519 -44.9115326 11.53452429 -40.2109375 5.828125 C-29.15585165 -3.67454454 -13.46685388 -6.97627185 0 0 Z " fill="#010A61" transform="translate(74,95)"/>
<path d="M0 0 C5.20147562 4.18379561 9.90655775 8.8152787 11.875 15.3125 C12.1483992 18.83080111 12.10760745 22.33626591 12.0703125 25.86328125 C12.06829834 26.76252319 12.06628418 27.66176514 12.06420898 28.58825684 C12.05377811 31.93389009 12.02585556 35.27945039 12 38.625 C11.95875 46.111875 11.9175 53.59875 11.875 61.3125 C-7.925 61.3125 -27.725 61.3125 -48.125 61.3125 C-48.2075 53.7225 -48.29 46.1325 -48.375 38.3125 C-48.41141602 35.93160156 -48.44783203 33.55070312 -48.48535156 31.09765625 C-48.49704459 29.19011331 -48.50723496 27.28256032 -48.515625 25.375 C-48.53608887 24.40111328 -48.55655273 23.42722656 -48.57763672 22.42382812 C-48.58147016 14.86427997 -46.99528187 9.54734361 -41.94140625 3.8515625 C-40.82572266 2.90410156 -40.82572266 2.90410156 -39.6875 1.9375 C-38.94628906 1.29039063 -38.20507812 0.64328125 -37.44140625 -0.0234375 C-26.61271485 -7.80256488 -11.12783704 -6.009032 0 0 Z " fill="#94959A" transform="translate(156.125,96.6875)"/>
<path d="M0 0 C0.95583984 -0.020625 1.91167969 -0.04125 2.89648438 -0.0625 C11.13823943 -0.10744481 18.62138885 0.93855643 24.8125 6.8125 C25.78703125 7.71162109 25.78703125 7.71162109 26.78125 8.62890625 C29.37794269 11.37795591 29.49618031 13.37623059 29.5625 17.0625 C29.58828125 17.91457031 29.6140625 18.76664063 29.640625 19.64453125 C29.22994648 22.90551428 28.2916816 24.6311263 26.3125 27.25 C23.90234375 29.05078125 23.90234375 29.05078125 21.25 30.5625 C20.37214844 31.07425781 19.49429688 31.58601563 18.58984375 32.11328125 C16.3125 33.25 16.3125 33.25 14.3125 33.25 C17.3897469 38.20035372 21.0085735 42.59662393 24.71875 47.0859375 C27.65056462 50.64567192 30.51840925 54.25476617 33.375 57.875 C34.10891968 58.79925781 34.10891968 58.79925781 34.85766602 59.7421875 C38.3125 64.13194615 38.3125 64.13194615 38.3125 65.25 C20.8225 65.25 3.3325 65.25 -14.6875 65.25 C-14.6875 44.13 -14.6875 23.01 -14.6875 1.25 C-9.71596464 0.00711616 -5.1026428 0.02698027 0 0 Z " fill="#020A61" transform="translate(201.6875,92.75)"/>
<path d="M0 0 C2.45499189 0.01609991 4.90833839 0.00004451 7.36328125 -0.01904297 C20.85822652 -0.03842496 33.43630455 1.87656082 46.20703125 6.45361328 C47.03920166 6.75033936 47.87137207 7.04706543 48.72875977 7.3527832 C63.33480439 12.76451881 76.68288949 20.16360475 88.45703125 30.39111328 C89.36146973 31.16430908 89.36146973 31.16430908 90.28417969 31.953125 C113.61688019 52.09111358 127.75999629 78.51735607 134.45703125 108.39111328 C134.70453125 109.44041016 134.95203125 110.48970703 135.20703125 111.57080078 C138.56148659 128.76238441 137.33478689 147.40654356 133.45703125 164.39111328 C133.30234375 165.25220703 133.14765625 166.11330078 132.98828125 167.00048828 C129.02299297 188.50455164 114.81234332 209.46841012 100.45703125 225.39111328 C99.62558594 226.31923828 98.79414063 227.24736328 97.9375 228.20361328 C81.55797609 245.51407788 60.35026995 257.14409331 37.45703125 263.39111328 C36.61253418 263.64860352 35.76803711 263.90609375 34.89794922 264.17138672 C25.08369762 266.85510826 15.41171651 266.91551836 5.29394531 266.89208984 C2.35771189 266.89112175 -0.57586317 266.93277682 -3.51171875 266.97705078 C-37.62099542 267.1912341 -69.06942744 251.72314739 -93.23046875 228.14111328 C-107.90399071 213.33041425 -118.76139676 195.05267335 -125.54296875 175.39111328 C-125.93258789 174.28123047 -125.93258789 174.28123047 -126.33007812 173.14892578 C-134.24482128 149.3029644 -134.49508121 115.95023697 -125.54296875 92.39111328 C-125.0802161 91.06446922 -124.61797252 89.73764747 -124.15625 88.41064453 C-111.64406489 53.91090081 -85.68768963 26.78830349 -52.6484375 11.20751953 C-48.48765595 9.32604463 -44.27109664 7.64009783 -39.98046875 6.07861328 C-39.35736816 5.84819336 -38.73426758 5.61777344 -38.09228516 5.38037109 C-25.52252652 1.04509349 -13.1869752 -0.10253031 0 0 Z M-97.70068359 47.29882812 C-108.8423755 59.95245914 -117.51173622 75.58829544 -122.91796875 91.51611328 C-123.2579187 92.51650635 -123.2579187 92.51650635 -123.60473633 93.53710938 C-127.65814899 106.33302734 -129.09880549 118.75569694 -128.98046875 132.07861328 C-128.97709503 132.82023712 -128.97372131 133.56186096 -128.97024536 134.32595825 C-128.73444147 170.23324955 -114.75172915 203.45188966 -89.20410156 228.81201172 C-70.33984236 246.74470257 -47.83913044 257.8703934 -22.54296875 263.39111328 C-21.69976074 263.57730225 -20.85655273 263.76349121 -19.98779297 263.95532227 C5.35977419 269.09060783 32.00714774 264.82066487 55.45703125 254.39111328 C56.11751465 254.09865723 56.77799805 253.80620117 57.45849609 253.50488281 C87.88883934 239.7562776 112.66766852 214.31718045 125.1171875 183.21142578 C138.14718148 147.13286353 137.52255048 111.21993275 121.40234375 76.34423828 C116.0928044 65.31128779 109.49970559 55.62642754 101.45703125 46.39111328 C100.92335937 45.73626953 100.3896875 45.08142578 99.83984375 44.40673828 C84.60817477 25.79940212 61.31573752 13.2222849 38.51953125 6.70361328 C37.81650879 6.5009082 37.11348633 6.29820313 36.38916016 6.08935547 C-13.50474629 -7.50466316 -63.34811803 10.20559415 -97.70068359 47.29882812 Z " fill="#1C2158" transform="translate(133.54296875,2.60888671875)"/>
<path d="M0 0 C0.66 0 1.32 0 2 0 C-2.28272997 20.03529997 -16.15077625 36.64064113 -30 51 C-30.52916016 51.556875 -31.05832031 52.11375 -31.60351562 52.6875 C-47.12254982 68.68322808 -67.63849781 79.17095447 -89 85 C-89.84449707 85.25749023 -90.68899414 85.51498047 -91.55908203 85.78027344 C-101.37333363 88.46399498 -111.04531474 88.52440508 -121.16308594 88.50097656 C-124.09931936 88.50000847 -127.03289442 88.54166354 -129.96875 88.5859375 C-161.9002777 88.78644602 -193.08318632 75.16142216 -216.0859375 53.08203125 C-218.42965745 50.7547239 -220.73611269 48.40472823 -223 46 C-222.67 45.01 -222.34 44.02 -222 43 C-221.14341797 43.90878906 -221.14341797 43.90878906 -220.26953125 44.8359375 C-200.59023864 65.17224942 -176.5566562 77.98594216 -149 84 C-148.15679199 84.18618896 -147.31358398 84.37237793 -146.44482422 84.56420898 C-121.09725706 89.69949455 -94.44988351 85.42955159 -71 75 C-70.3395166 74.70754395 -69.6790332 74.41508789 -68.99853516 74.11376953 C-36.18441556 59.28816037 -14.10895072 32.64801565 0 0 Z " fill="#1A1E58" transform="translate(260,181)"/>
<path d="M0 0 C0.60295898 0.51546387 1.20591797 1.03092773 1.82714844 1.56201172 C25.15984894 21.7000003 39.30296504 48.12624279 46 78 C46.2475 79.04929687 46.495 80.09859375 46.75 81.1796875 C50.10158894 98.35658081 48.90122648 117.0306257 45 134 C44.81050781 134.94230469 44.62101563 135.88460937 44.42578125 136.85546875 C43.63276618 140.74441467 42.63552611 144.37847789 41 148 C40.01 148 39.02 148 38 148 C39.46484375 142.140625 39.46484375 142.140625 40.9296875 136.28125 C41.1054834 135.57524658 41.2812793 134.86924316 41.46240234 134.1418457 C41.82195777 132.70933902 42.18690609 131.27817557 42.55712891 129.84838867 C50.83006591 97.67878333 42.21012153 62.25903559 25.625 34.1875 C21.64917112 27.64068058 17.01732437 21.78618744 12 16 C11.14375863 14.91830572 10.28919858 13.83527478 9.4375 12.75 C-11.11932329 -10.44231345 -43.99383096 -25.22456816 -74.69580078 -27.17089844 C-81.12767014 -27.52525408 -87.56201985 -27.7867587 -94 -28 C-94 -28.33 -94 -28.66 -94 -29 C-91.00013007 -29.1693475 -88.00013908 -29.33554793 -85 -29.5 C-84.16082031 -29.54769531 -83.32164062 -29.59539063 -82.45703125 -29.64453125 C-52.54364309 -31.26773836 -22.57526843 -19.60981575 0 0 Z " fill="#262B62" transform="translate(222,33)"/>
<path d="M0 0 C3.82162363 1.59709644 7.03139944 3.38566574 9.1953125 6.9921875 C10.35289635 9.88052778 10.37102558 11.90812016 10 15 C7.52566721 19.85349893 5.18268145 22.27243952 0 24 C-5.05819394 24.66728617 -8.81581248 24.58132842 -13.4375 22.3125 C-17.24452593 18.87689123 -18.79564304 16.6348557 -19.4375 11.5 C-18.80507392 6.44059137 -16.64539841 4.40342806 -12.875 1.1875 C-8.53333801 -0.60579517 -4.62390944 -0.75778789 0 0 Z " fill="#131313" transform="translate(184,163)"/>
<path d="M0 0 C2.97 0 5.94 0 9 0 C10.65 3.96 12.3 7.92 14 12 C15.71017726 9.4347341 16.90417811 7.12039035 18.125 4.3125 C18.47820313 3.50425781 18.83140625 2.69601563 19.1953125 1.86328125 C19.46085937 1.24839844 19.72640625 0.63351563 20 0 C22.97 0 25.94 0 29 0 C29 7.59 29 15.18 29 23 C27.02 23 25.04 23 23 23 C22.67 19.04 22.34 15.08 22 11 C20.35 14.63 18.7 18.26 17 22 C15.35 22 13.7 22 12 22 C10.35 18.37 8.7 14.74 7 11 C6.67 14.96 6.34 18.92 6 23 C4.02 23 2.04 23 0 23 C0 15.41 0 7.82 0 0 Z " fill="#0E0E0E" transform="translate(28,164)"/>
<path d="M0 0 C2.206875 -0.061875 4.41375 -0.12375 6.6875 -0.1875 C8.54955078 -0.23970703 8.54955078 -0.23970703 10.44921875 -0.29296875 C14.49607131 0.04092998 17.11242948 1.11242948 20 4 C19.66651653 8.50202682 19.41479355 11.00746586 16 14 C16.3609375 14.48210937 16.721875 14.96421875 17.09375 15.4609375 C17.5578125 16.09257812 18.021875 16.72421875 18.5 17.375 C18.9640625 18.00148437 19.428125 18.62796875 19.90625 19.2734375 C21 21 21 21 21 23 C17.8125 23.5 17.8125 23.5 14 23 C12.3630105 21.0590602 11.2763128 19.11503295 10.140625 16.84765625 C9.06646603 14.66596914 9.06646603 14.66596914 6 14 C6 16.64 6 19.28 6 22 C4.02 22 2.04 22 0 22 C0 14.74 0 7.48 0 0 Z " fill="#0F0F0F" transform="translate(144,164)"/>
<path d="M0 0 C3.5578125 -0.12375 3.5578125 -0.12375 7.1875 -0.25 C7.92508545 -0.28641602 8.6626709 -0.32283203 9.42260742 -0.36035156 C12.97059662 -0.41976421 14.93530503 -0.03841264 18 1.78125 C20 4 20 4 19.8125 7.75 C19.544375 8.8225 19.27625 9.895 19 11 C17.68 11.33 16.36 11.66 15 12 C15.433125 12.62648437 15.86625 13.25296875 16.3125 13.8984375 C16.869375 14.71570313 17.42625 15.53296875 18 16.375 C18.556875 17.18710938 19.11375 17.99921875 19.6875 18.8359375 C21 21 21 21 21 23 C17.8125 23.4375 17.8125 23.4375 14 23 C11.82857115 20.9521921 10.31305984 18.67452741 9 16 C9 15.34 9 14.68 9 14 C8.01 14 7.02 14 6 14 C6 16.64 6 19.28 6 22 C4.02 22 2.04 22 0 22 C0 14.74 0 7.48 0 0 Z " fill="#101010" transform="translate(88,164)"/>
<path d="M0 0 C2.64 0 5.28 0 8 0 C10.53125 2.5546875 10.53125 2.5546875 12.5 5.875 C13.50546875 7.51082031 13.50546875 7.51082031 14.53125 9.1796875 C16 12 16 12 16 14 C16.66 14 17.32 14 18 14 C18 9.38 18 4.76 18 0 C19.65 0 21.3 0 23 0 C23 7.26 23 14.52 23 22 C16 22 16 22 13.34765625 19.375 C12.562352 18.26633518 11.80094319 17.14041313 11.0625 16 C10.66482422 15.42765625 10.26714844 14.8553125 9.85742188 14.265625 C8.88387842 12.8580923 7.93897788 11.43082343 7 10 C6.67 14.29 6.34 18.58 6 23 C4.02 23 2.04 23 0 23 C0 15.41 0 7.82 0 0 Z " fill="#090909" transform="translate(61,164)"/>
<path d="M0 0 C-0.66 1.32 -1.32 2.64 -2 4 C-3.64620877 4 -5.29372486 3.98401095 -6.9375 3.89453125 C-11.13592372 3.71657124 -11.13592372 3.71657124 -15.0625 5 C-16.64120236 8.36789837 -15.64906482 11.40064052 -15 15 C-11.7 15.66 -8.4 16.32 -5 17 C-5 15.68 -5 14.36 -5 13 C-6.65 13 -8.3 13 -10 13 C-10 11.35 -10 9.7 -10 8 C-6.37 8 -2.74 8 1 8 C1 11.96 1 15.92 1 20 C-4.17077163 22.58538582 -8.31025765 22.53599022 -14 22 C-18.32709754 20.45460802 -20.58232001 18.8669143 -23 15 C-23.66407163 11.59663289 -23.59201035 8.4137419 -23 5 C-17.1046519 -3.08504882 -8.86584392 -3.45984153 0 0 Z " fill="#121212" transform="translate(140,165)"/>
<path d="M0 0 C1.98 0 3.96 0 6 0 C6.06058594 1.14339844 6.12117187 2.28679687 6.18359375 3.46484375 C6.26798428 4.95574305 6.35263302 6.44662775 6.4375 7.9375 C6.47681641 8.69224609 6.51613281 9.44699219 6.55664062 10.22460938 C6.44038024 13.91944187 6.44038024 13.91944187 8 17 C10.5 17.16666667 10.5 17.16666667 13 17 C15.05922402 14.94077598 14.41427579 10.78291876 14.5625 7.9375 C14.60568359 7.17888672 14.64886719 6.42027344 14.69335938 5.63867188 C14.79973633 3.75934562 14.90039934 1.87969756 15 0 C17.31 0 19.62 0 22 0 C22.08132187 2.56314499 22.14064175 5.12368418 22.1875 7.6875 C22.21263672 8.40873047 22.23777344 9.12996094 22.26367188 9.87304688 C22.32649072 14.45882272 21.95077107 17.42591999 19 21 C14.97773634 23.72263655 10.68909298 23.56001645 6 23 C1.45945946 20.91891892 1.45945946 20.91891892 0 18 C-0.08308638 16.62451844 -0.10736016 15.24514204 -0.09765625 13.8671875 C-0.09443359 13.06152344 -0.09121094 12.25585938 -0.08789062 11.42578125 C-0.07951172 10.58402344 -0.07113281 9.74226562 -0.0625 8.875 C-0.05798828 8.02550781 -0.05347656 7.17601562 -0.04882812 6.30078125 C-0.03702874 4.20049091 -0.01909306 2.1002367 0 0 Z " fill="#121212" transform="translate(196,164)"/>
<path d="M0 0 C3.5578125 -0.12375 3.5578125 -0.12375 7.1875 -0.25 C7.92508545 -0.28641602 8.6626709 -0.32283203 9.42260742 -0.36035156 C12.98858142 -0.42006537 14.90613596 -0.05790556 17.95703125 1.82421875 C20 4 20 4 20.5 7.0625 C20 10 20 10 18.6875 11.8125 C15.78320998 13.85625964 13.24904977 14.11883688 9.8125 14.0625 C7.9253125 14.0315625 7.9253125 14.0315625 6 14 C6 16.64 6 19.28 6 22 C4.02 22 2.04 22 0 22 C0 14.74 0 7.48 0 0 Z " fill="#080808" transform="translate(221,164)"/>
<path d="M0 0 C0.33 0 0.66 0 1 0 C1.0093457 0.68288086 1.01869141 1.36576172 1.02832031 2.06933594 C1.62679853 37.09791399 9.88388744 65.90769394 31 94 C31.59167969 94.79019531 32.18335938 95.58039063 32.79296875 96.39453125 C33.19128906 96.92433594 33.58960938 97.45414062 34 98 C33.34 98.66 32.68 99.32 32 100 C6.82413276 69.79853189 -2.77780252 39.03188992 0 0 Z " fill="#1F235D" transform="translate(4,126)"/>
<path d="M0 0 C2.5 1 2.5 1 4 3 C4.55562202 5.77811011 4.56128878 8.2224885 4 11 C2.4375 13 2.4375 13 0 14 C-4.19049133 14.37415101 -7.46745185 14.44561026 -11 12 C-12.42041821 9.15916359 -12.31452272 7.14522722 -12 4 C-8.99696132 -0.75481125 -5.15527121 -0.83456235 0 0 Z " fill="#CFCFCF" transform="translate(242,85)"/>
<path d="M0 0 C2.875 1.625 2.875 1.625 5 4 C5.68551032 7.65605504 5.48491197 9.2629338 3.4375 12.375 C0.12030578 14.58646281 -2.08945759 14.42660463 -6 14 C-9 12 -9 12 -9.9375 8.125 C-10.20860552 5.01858256 -10.15042031 4.2406725 -8.4375 1.5 C-5.28244346 -0.44157326 -3.65067938 -0.59602929 0 0 Z " fill="#F0F0F0" transform="translate(182,168)"/>
<path d="M0 0 C12.03785257 4.66331226 19.88358172 25.09397431 24.8125 36.25 C31.58500318 52.02995121 31.58500318 52.02995121 31 61 C28.34005868 58.34005868 27.8156613 55.39642779 26.8125 51.875 C21.51447698 34.27002802 13.46687254 17.85910898 1.43359375 3.85546875 C0 2 0 2 0 0 Z " fill="#20245B" transform="translate(235,48)"/>
<path d="M0 0 C0.66 0.66 1.32 1.32 2 2 C0.68 2.99 -0.64 3.98 -2 5 C-1.01 5.66 -0.02 6.32 1 7 C-2.63 7 -6.26 7 -10 7 C-10 8.65 -10 10.3 -10 12 C-8.35 12 -6.7 12 -5 12 C-5 13.32 -5 14.64 -5 16 C-6.258125 16.04125 -7.51625 16.0825 -8.8125 16.125 C-9.52019531 16.14820313 -10.22789062 16.17140625 -10.95703125 16.1953125 C-13 16 -13 16 -16 14 C-17.65844028 7.14511352 -17.65844028 7.14511352 -15.5625 3.5 C-11.84373185 1.32316011 -9.28974127 1.72763547 -5 2 C-4.01 2 -3.02 2 -2 2 C-1.34 1.34 -0.68 0.68 0 0 Z " fill="#E9E9E9" transform="translate(140,166)"/>
<path d="M0 0 C0.66 0.99 1.32 1.98 2 3 C-35.69519647 21.69178246 -35.69519647 21.69178246 -47.36328125 19.5703125 C-47.90339844 19.38210938 -48.44351563 19.19390625 -49 19 C-49 18.34 -49 17.68 -49 17 C-47.8140625 16.78085937 -46.628125 16.56171875 -45.40625 16.3359375 C-29.00799777 13.17764196 -14.74091753 7.78504707 0 0 Z " fill="#222760" transform="translate(203,249)"/>
<path d="M0 0 C1.01900391 0.21462891 1.01900391 0.21462891 2.05859375 0.43359375 C3.70725797 0.78190309 5.35386894 1.13990883 7 1.5 C7 2.49 7 3.48 7 4.5 C6.2265625 4.36722656 5.453125 4.23445312 4.65625 4.09765625 C3.6146875 3.92105469 2.573125 3.74445312 1.5 3.5625 C0.4790625 3.38847656 -0.541875 3.21445313 -1.59375 3.03515625 C-9.2483066 1.83254816 -16.76194919 1.24722513 -24.5 0.9375 C-26.01980469 0.87272461 -26.01980469 0.87272461 -27.5703125 0.80664062 C-30.0467679 0.70150808 -32.52330749 0.59936163 -35 0.5 C-35 0.17 -35 -0.16 -35 -0.5 C-32.00013007 -0.6693475 -29.00013908 -0.83554793 -26 -1 C-25.16082031 -1.04769531 -24.32164062 -1.09539062 -23.45703125 -1.14453125 C-15.40848893 -1.58127386 -7.91105122 -1.7457787 0 0 Z " fill="#373C6F" transform="translate(163,4.5)"/>
<path d="M0 0 C11.38847256 2.12327455 21.79958845 6.58894647 32 12 C32 12.66 32 13.32 32 14 C27.91286034 13.37641068 24.69760168 12.01319083 21 10.1875 C15.277021 7.45667212 9.61152978 5.56211127 3.484375 3.95703125 C2.66453125 3.64121094 1.8446875 3.32539063 1 3 C0.67 2.01 0.34 1.02 0 0 Z " fill="#1B2159" transform="translate(170,7)"/>
<path d="M0 0 C2.5 1 2.5 1 4 3 C4.55562202 5.77811011 4.56128878 8.2224885 4 11 C2.4375 13 2.4375 13 0 14 C-4.19049133 14.37415101 -7.46745185 14.44561026 -11 12 C-12.42041821 9.15916359 -12.31452272 7.14522722 -12 4 C-8.99696132 -0.75481125 -5.15527121 -0.83456235 0 0 Z M-10 4 C-10.66666667 7 -10.66666667 7 -10 10 C-8.53958234 12.11670357 -8.53958234 12.11670357 -6 13 C-0.94892809 12.81541642 -0.94892809 12.81541642 3 10 C3.50010524 7.04230823 3.50010524 7.04230823 3 4 C0.90691254 1.67434727 -0.41584402 1.0876234 -3.5 0.625 C-6.58415598 1.0876234 -7.90691254 1.67434727 -10 4 Z " fill="#1F2020" transform="translate(242,85)"/>
<path d="M0 0 C1.3951758 0.01005941 2.7903587 0.01917998 4.18554688 0.02734375 C7.5613837 0.05070594 10.93684618 0.08346332 14.3125 0.125 C14.3125 0.455 14.3125 0.785 14.3125 1.125 C13.10335937 1.17398437 11.89421875 1.22296875 10.6484375 1.2734375 C2.90510281 1.6179385 -4.71645031 2.01663182 -12.375 3.25 C-17.48664239 4.06498636 -21.61887103 4.13872579 -26.6875 3.125 C-26.6875 2.795 -26.6875 2.465 -26.6875 2.125 C-17.76815395 0.0422147 -9.12122527 -0.11569342 0 0 Z " fill="#191F52" transform="translate(132.6875,2.875)"/>
<path d="M0 0 C0.33 0 0.66 0 1 0 C1.03758423 1.11072876 1.03758423 1.11072876 1.07592773 2.24389648 C1.1929172 5.64189649 1.31517147 9.03968817 1.4375 12.4375 C1.47681641 13.60216797 1.51613281 14.76683594 1.55664062 15.96679688 C1.79077501 22.36046672 2.19215648 28.65265809 3 35 C2.01 35 1.02 35 0 35 C-1.0132933 30.88882685 -1.04062543 27.17188615 -0.87890625 22.94921875 C-0.85529526 22.29041214 -0.83168427 21.63160553 -0.80735779 20.95283508 C-0.73124327 18.86414178 -0.64699771 16.77586926 -0.5625 14.6875 C-0.50922687 13.26499403 -0.45648689 11.84246799 -0.40429688 10.41992188 C-0.27570006 6.94636091 -0.13981289 3.47312966 0 0 Z " fill="#3A406F" transform="translate(4,126)"/>
<path d="M0 0 C0.99 0 1.98 0 3 0 C3 7.26 3 14.52 3 22 C2.67 22 2.34 22 2 22 C1.67 20.35 1.34 18.7 1 17 C0.34 17.33 -0.32 17.66 -1 18 C-0.505 9.09 -0.505 9.09 0 0 Z " fill="#E8E8E8" transform="translate(218,164)"/>
<path d="M0 0 C1.98 0 3.96 0 6 0 C6.38218767 1.65614657 6.71395102 3.32457024 7 5 C6 6 6 6 2.9375 6.0625 C1.4834375 6.0315625 1.4834375 6.0315625 0 6 C0 4.02 0 2.04 0 0 Z " fill="#CBCBCB" transform="translate(227,168)"/>
<path d="M0 0 C1.98 0 3.96 0 6 0 C7.4606285 2.64738916 8 3.89448334 8 7 C7.01 7.33 6.02 7.66 5 8 C5 6.02 5 4.04 5 2 C4.01 2 3.02 2 2 2 C2 3.98 2 5.96 2 8 C1.34 8 0.68 8 0 8 C0 5.36 0 2.72 0 0 Z " fill="#171717" transform="translate(235,88)"/>
<path d="M0 0 C4.14862774 4.33720173 4.88845452 10.26713577 5.125 16.0625 C5.08375 16.701875 5.0425 17.34125 5 18 C3 17 3 17 2.1484375 14.9609375 C0.59935151 9.7816702 -0.35252828 5.40543358 0 0 Z " fill="#161C56" transform="translate(5,159)"/>
<path d="M0 0 C-1.46966358 3.39859703 -3.38037514 5.64963709 -6 8.25 C-6.70125 8.95640625 -7.4025 9.6628125 -8.125 10.390625 C-10 12 -10 12 -12 12 C-10.53033642 8.60140297 -8.61962486 6.35036291 -6 3.75 C-5.29875 3.04359375 -4.5975 2.3371875 -3.875 1.609375 C-2 0 -2 0 0 0 Z " fill="#0A124E" transform="translate(236,224)"/>
<path d="M0 0 C1.98 0 3.96 0 6 0 C6.33 1.65 6.66 3.3 7 5 C4.69 5 2.38 5 0 5 C0 3.35 0 1.7 0 0 Z " fill="#E4E4E4" transform="translate(150,168)"/>
<path d="M0 0 C1.98 0 3.96 0 6 0 C6.33 1.65 6.66 3.3 7 5 C4.69 5 2.38 5 0 5 C0 3.35 0 1.7 0 0 Z " fill="#E3E3E3" transform="translate(94,168)"/>
<path d="M0 0 C7.48291572 6.15034169 7.48291572 6.15034169 10 10 C9.01 10.33 8.02 10.66 7 11 C5.88625 9.63875 5.88625 9.63875 4.75 8.25 C2.62325416 5.6930577 0.39770184 3.30889807 -2 1 C-1.34 0.67 -0.68 0.34 0 0 Z " fill="#31346D" transform="translate(227,38)"/>
<path d="M0 0 C1.90389849 2.85584773 2.69462177 4.9311762 3.625 8.1875 C3.88539062 9.08855469 4.14578125 9.98960937 4.4140625 10.91796875 C4.60742188 11.60503906 4.80078125 12.29210937 5 13 C4.01 13 3.02 13 2 13 C1.30314502 11.3789897 0.61777139 9.75303934 -0.0625 8.125 C-0.44535156 7.22007812 -0.82820312 6.31515625 -1.22265625 5.3828125 C-2 3 -2 3 -1 1 C-0.67 0.67 -0.34 0.34 0 0 Z " fill="#30366B" transform="translate(10,175)"/>
<path d="M0 0 C0.99 0 1.98 0 3 0 C3 1.98 3 3.96 3 6 C3.99 6.33 4.98 6.66 6 7 C3.69 7.33 1.38 7.66 -1 8 C-1.33 7.34 -1.66 6.68 -2 6 C-1.34 6 -0.68 6 0 6 C0 4.02 0 2.04 0 0 Z " fill="#B2B2B2" transform="translate(237,90)"/>
<path d="M0 0 C0 0.66 0 1.32 0 2 C-0.99 2 -1.98 2 -3 2 C-3.2475 2.61875 -3.495 3.2375 -3.75 3.875 C-5.23101402 6.39272383 -6.25177691 7.08392564 -9 8 C-9.99 7.67 -10.98 7.34 -12 7 C-10.70982586 6.01886757 -9.41780894 5.04015801 -8.125 4.0625 C-7.04605469 3.24458984 -7.04605469 3.24458984 -5.9453125 2.41015625 C-2.62049861 0 -2.62049861 0 0 0 Z " fill="#15185D" transform="translate(46,94)"/>
<path d="M0 0 C-1.13888672 0.07347656 -1.13888672 0.07347656 -2.30078125 0.1484375 C-3.29464844 0.22320312 -4.28851563 0.29796875 -5.3125 0.375 C-6.79169922 0.47941406 -6.79169922 0.47941406 -8.30078125 0.5859375 C-11.21528433 0.83865472 -11.21528433 0.83865472 -14 3 C-14 2.01 -14 1.02 -14 0 C-14.66 -0.33 -15.32 -0.66 -16 -1 C-10.54164315 -2.81945228 -5.0153349 -2.83232082 0 0 Z " fill="#171C60" transform="translate(203,95)"/>
<path d="M0 0 C1.1055189 0.93590504 2.20935453 1.87379858 3.3125 2.8125 C3.92738281 3.33457031 4.54226562 3.85664063 5.17578125 4.39453125 C8.51952278 7.3373102 8.51952278 7.3373102 10 9 C10 9.66 10 10.32 10 11 C5.90725115 9.42586583 2.64043987 6.45897623 0 3 C0 2.01 0 1.02 0 0 Z " fill="#0F1450" transform="translate(37,224)"/>
<path d="M0 0 C0 0.66 0 1.32 0 2 C-0.99 2.66 -1.98 3.32 -3 4 C-3.25005386 6.95817107 -3.25005386 6.95817107 -3 10 C-3 10.99 -3 11.98 -3 13 C-5.49619254 11.12785559 -5.96865123 10.2104846 -6.4375 7.0625 C-5.89350987 3.25456912 -4.24707674 0 0 0 Z " fill="#424342" transform="translate(236,85)"/>
<path d="M0 0 C1.67110042 2.96178773 2.32682752 5.37071192 2.625 8.75 C2.69976562 9.54921875 2.77453125 10.3484375 2.8515625 11.171875 C2.90054687 11.77515625 2.94953125 12.3784375 3 13 C2.34 13 1.68 13 1 13 C-1.42857143 4.57142857 -1.42857143 4.57142857 0 0 Z " fill="#272B61" transform="translate(266,107)"/>
<path d="M0 0 C0.66 0.99 1.32 1.98 2 3 C-1.33333333 6.33333333 -4.66666667 9.66666667 -8 13 C-8.66 12.67 -9.32 12.34 -10 12 C-9.36191406 11.30132812 -8.72382813 10.60265625 -8.06640625 9.8828125 C-7.24011719 8.97273437 -6.41382813 8.06265625 -5.5625 7.125 C-4.73878906 6.22007812 -3.91507813 5.31515625 -3.06640625 4.3828125 C-0.99092058 2.18862073 -0.99092058 2.18862073 0 0 Z " fill="#E0E4F4" transform="translate(243,216)"/>
<path d="M0 0 C2.5625 2.25 2.5625 2.25 5 5 C4.8125 7.3125 4.8125 7.3125 4 9 C3.71125 8.360625 3.4225 7.72125 3.125 7.0625 C2.17176549 4.84793921 2.17176549 4.84793921 0 4 C0 5.32 0 6.64 0 8 C-0.66 8 -1.32 8 -2 8 C-1.47731534 5.23723823 -0.89130413 2.6739124 0 0 Z " fill="#171E62" transform="translate(226,100)"/>
<path d="M0 0 C0.99 0.33 1.98 0.66 3 1 C0.42215154 3.64752004 -1.91648098 5.94432065 -5 8 C-5.66 7.34 -6.32 6.68 -7 6 C-5.90716423 4.96704564 -4.80029421 3.94892165 -3.6875 2.9375 C-3.07261719 2.36902344 -2.45773438 1.80054688 -1.82421875 1.21484375 C-0.92123047 0.61349609 -0.92123047 0.61349609 0 0 Z " fill="#262A60" transform="translate(222,235)"/>
<path d="M0 0 C4.455 0.99 4.455 0.99 9 2 C9 2.66 9 3.32 9 4 C5.7 3.67 2.4 3.34 -1 3 C-0.67 2.01 -0.34 1.02 0 0 Z " fill="#31346C" transform="translate(109,265)"/>
<path d="M0 0 C-1.5830577 4.2742558 -4.50568404 6.26531794 -8 9 C-7.53918323 4.85264908 -4.48412936 0 0 0 Z " fill="#161951" transform="translate(42,43)"/>
<path d="M0 0 C2.475 0.99 2.475 0.99 5 2 C5 2.99 5 3.98 5 5 C3.35 5 1.7 5 0 5 C-0.5625 3.0625 -0.5625 3.0625 -1 1 C-0.67 0.67 -0.34 0.34 0 0 Z " fill="#090E5A" transform="translate(221,97)"/>
<path d="M0 0 C3.33523252 1.38009621 5.18607951 2.84950652 7 6 C6.67 6.99 6.34 7.98 6 9 C4.99406757 7.8803014 3.9954151 6.7540588 3 5.625 C2.443125 4.99851562 1.88625 4.37203125 1.3125 3.7265625 C0 2 0 2 0 0 Z " fill="#181A55" transform="translate(235,48)"/>
<path d="M0 0 C-1.39332574 3.36720387 -2.9789286 4.9859524 -6 7 C-6.66 6.34 -7.32 5.68 -8 5 C-2.25 0 -2.25 0 0 0 Z " fill="#2E3168" transform="translate(48,37)"/>
<path d="M0 0 C-1.44253657 3.36591866 -3.33264727 5.51047079 -6 8 C-6 4 -6 4 -4.125 1.75 C-2 0 -2 0 0 0 Z " fill="#1C1F5A" transform="translate(242,217)"/>
<path d="M0 0 C0.33 0 0.66 0 1 0 C1 4.62 1 9.24 1 14 C0.67 14 0.34 14 0 14 C-2.27571116 5.96498906 -2.27571116 5.96498906 -1.125 1.9375 C-0.75375 1.298125 -0.3825 0.65875 0 0 Z " fill="#E7E7E7" transform="translate(50,172)"/>
<path d="M0 0 C0.66 0 1.32 0 2 0 C1.67 2.64 1.34 5.28 1 8 C0.01 8.33 -0.98 8.66 -2 9 C-1.125 1.125 -1.125 1.125 0 0 Z " fill="#31366B" transform="translate(5,110)"/>
<path d="M0 0 C2.64 0 5.28 0 8 0 C8 0.66 8 1.32 8 2 C5.69 2.33 3.38 2.66 1 3 C0.67 2.01 0.34 1.02 0 0 Z " fill="#1D2160" transform="translate(154,266)"/>
<path d="M0 0 C1.46726798 3.81489674 0.43336419 6.29011622 -1 10 C-1.66 9.67 -2.32 9.34 -3 9 C-2.5020163 5.26512223 -2.12508244 3.18762365 0 0 Z " fill="#1B205F" transform="translate(31,105)"/>
<path d="M0 0 C2.91517292 1.07401108 4.77810176 1.77810176 7 4 C6.34 4.66 5.68 5.32 5 6 C3.02 4.68 1.04 3.36 -1 2 C-0.67 1.34 -0.34 0.68 0 0 Z " fill="#2A2C66" transform="translate(202,20)"/>
<path d="M0 0 C0.66 0.99 1.32 1.98 2 3 C-1.465 4.485 -1.465 4.485 -5 6 C-5 5.01 -5 4.02 -5 3 C-2.5 1.3125 -2.5 1.3125 0 0 Z " fill="#262964" transform="translate(203,249)"/>
<path d="M0 0 C0.66 0.33 1.32 0.66 2 1 C1.67 2.98 1.34 4.96 1 7 C0.01 7 -0.98 7 -2 7 C-1.34 4.69 -0.68 2.38 0 0 Z " fill="#2D326A" transform="translate(266,160)"/>
<path d="M0 0 C2.64 0.33 5.28 0.66 8 1 C8 1.66 8 2.32 8 3 C5.6568787 2.74438677 3.32156597 2.40729228 1 2 C0.67 1.34 0.34 0.68 0 0 Z " fill="#181B56" transform="translate(101,264)"/>
<path d="M0 0 C2.62187494 1.04874998 3.79371361 1.64931313 5.25 4.125 C5.4975 4.74375 5.745 5.3625 6 6 C4.35 6 2.7 6 1 6 C1 5.01 1 4.02 1 3 C0.67 2.01 0.34 1.02 0 0 Z " fill="#141755" transform="translate(234,152)"/>
<path d="M0 0 C0.66 0 1.32 0 2 0 C2 1.98 2 3.96 2 6 C1.01 6 0.02 6 -1 6 C-1 3 -1 3 0 0 Z " fill="#D9D9D8" transform="translate(243,89)"/>
<path d="M0 0 C0.99 0 1.98 0 3 0 C3.66 1.98 4.32 3.96 5 6 C4.01 6.33 3.02 6.66 2 7 C1.34 4.69 0.68 2.38 0 0 Z " fill="#2D3168" transform="translate(257,84)"/>
<path d="M0 0 C0.66 0.99 1.32 1.98 2 3 C0.68 4.65 -0.64 6.3 -2 8 C-2.66 7.34 -3.32 6.68 -4 6 C-2.68 4.02 -1.36 2.04 0 0 Z " fill="#282B61" transform="translate(24,62)"/>
</svg>
